<svg id="Layer_1" data-name="Layer 1" xmlns="http://www.w3.org/2000/svg" viewBox="0 0 500 537.62"><defs><style>.cls-1,.cls-4{fill:#606060;}.cls-2{fill:#f84d10;}.cls-3{fill:#444;}.cls-4{font-size:15.01px;font-family:ProductSans-Regular, ProductSans Regular;}.cls-5{letter-spacing:0em;}.cls-6{letter-spacing:-0.01em;}.cls-7{font-family:ProductSans-Bold, ProductSans Bold;font-weight:700;letter-spacing:0em;}.cls-8{letter-spacing:-0.03em;}.cls-9{letter-spacing:0em;}.cls-10{letter-spacing:0em;}.cls-11{letter-spacing:0em;}.cls-12{letter-spacing:0em;}.cls-13{letter-spacing:0.01em;}.cls-14{fill:#ee1c25;}</style></defs><polygon class="cls-1" points="186.59 509.31 176.86 531.79 171.72 531.79 162.02 509.31 167.64 509.31 174.48 525.36 181.42 509.31 186.59 509.31"/><path class="cls-1" d="M453.64,960.44H440.57c.48,2.15,2.31,3.46,4.94,3.46a5.85,5.85,0,0,0,4.34-1.67l2.66,2.89c-1.6,1.83-4,2.8-7.13,2.8-6,0-9.85-3.76-9.85-8.9s4-8.89,9.21-8.89c5.08,0,9,3.4,9,9,0,.38-.06.93-.09,1.35m-13.14-2.93H449a4.32,4.32,0,0,0-8.51,0" transform="translate(-250 -436.13)"/><path class="cls-1" d="M455.79,959c0-5.2,4-8.89,9.63-8.89,3.63,0,6.49,1.57,7.74,4.4l-3.89,2.08a4.31,4.31,0,0,0-3.88-2.37,4.79,4.79,0,0,0,0,9.57,4.25,4.25,0,0,0,3.88-2.38l3.89,2.12c-1.25,2.76-4.11,4.37-7.74,4.37-5.62,0-9.63-3.7-9.63-8.9" transform="translate(-250 -436.13)"/><path class="cls-1" d="M487.45,966.83a7.24,7.24,0,0,1-4.08,1.09c-4.08,0-6.45-2.09-6.45-6.2v-7.1h-2.67v-3.85h2.67v-4.21h5v4.21h4.3v3.85h-4.3v7a2,2,0,0,0,2.15,2.28,3.38,3.38,0,0,0,2-.65Z" transform="translate(-250 -436.13)"/><path class="cls-1" d="M521.83,950.38V955c-.42,0-.74-.07-1.12-.07-2.77,0-4.6,1.51-4.6,4.82v8.16h-5V950.64h4.79v2.28c1.22-1.67,3.27-2.54,5.94-2.54" transform="translate(-250 -436.13)"/><path class="cls-1" d="M523.27,965.32,525,961.4a13.21,13.21,0,0,0,7.42,2.34c3.08,0,4.33-1,4.33-2.41,0-4.2-13.07-1.31-13.07-9.66,0-3.82,3.09-7,9.48-7a15.06,15.06,0,0,1,7.8,2l-1.61,4a12.64,12.64,0,0,0-6.23-1.77c-3.08,0-4.27,1.16-4.27,2.57,0,4.14,13.07,1.29,13.07,9.54,0,3.76-3.11,7-9.53,7-3.57,0-7.17-1.06-9.16-2.6" transform="translate(-250 -436.13)"/><path class="cls-1" d="M562,960.44H548.93c.48,2.15,2.31,3.46,5,3.46a5.82,5.82,0,0,0,4.33-1.67l2.67,2.89a9.07,9.07,0,0,1-7.13,2.8c-6,0-9.86-3.76-9.86-8.9s4-8.89,9.21-8.89c5.08,0,9,3.4,9,9,0,.38-.07.93-.1,1.35m-13.13-2.93h8.51a4.32,4.32,0,0,0-8.51,0" transform="translate(-250 -436.13)"/><path class="cls-1" d="M582.26,960.44H569.19c.48,2.15,2.31,3.46,4.95,3.46a5.82,5.82,0,0,0,4.33-1.67l2.67,2.89a9.07,9.07,0,0,1-7.13,2.8c-6,0-9.86-3.76-9.86-8.9s4-8.89,9.22-8.89c5.07,0,9,3.4,9,9,0,.38-.07.93-.1,1.35m-13.13-2.93h8.51a4.32,4.32,0,0,0-8.51,0" transform="translate(-250 -436.13)"/><polygon class="cls-1" points="343.11 525.01 340.7 527.39 340.7 531.79 335.7 531.79 335.7 507.96 340.7 507.96 340.7 521.45 348.03 514.51 354 514.51 346.81 521.83 354.64 531.79 348.57 531.79 343.11 525.01"/><path class="cls-1" d="M511.55,970.27h0l-5-5a10.6,10.6,0,0,1-2.69,2.25c-.16.12-.32.24-.49.35l5.29,5.29a2,2,0,1,0,2.89-2.88" transform="translate(-250 -436.13)"/><path class="cls-2" d="M500,949.06a2.29,2.29,0,0,1,1.4-.49h.21a2.26,2.26,0,0,0-3.05.37h-.26a.93.93,0,0,0,.11-.44,1,1,0,0,0-.61-.91,1.29,1.29,0,0,1,.1,1.37,9.48,9.48,0,1,0,2.1.08m-3.5,2.48a4.26,4.26,0,0,1,2.1.54,4.1,4.1,0,0,1,2.27-.68,4.15,4.15,0,0,1,3.12,1.41,4.32,4.32,0,0,0-2.84-1.07,4.25,4.25,0,0,0-2.16.58c-.14.08-.27.17-.4.26l-.36-.23a4.25,4.25,0,0,0-2.2-.61,4.38,4.38,0,0,0-1.5.27,4.34,4.34,0,0,1,2-.47m6.63,7.77a4.86,4.86,0,1,1-9.09,0,3.79,3.79,0,1,1,4.55-6,3.79,3.79,0,1,1,4.54,6" transform="translate(-250 -436.13)"/><path class="cls-3" d="M502.92,955.75a1.58,1.58,0,1,1-1.58-1.58,1.64,1.64,0,0,1,.5.08.86.86,0,0,0,.79,1.22,1,1,0,0,0,.25,0,1.46,1.46,0,0,1,0,.31" transform="translate(-250 -436.13)"/><path class="cls-3" d="M497,955.75a1.2,1.2,0,1,1-1.2-1.2,1.12,1.12,0,0,1,.38.07.76.76,0,0,0-.06.27.66.66,0,0,0,.66.65.58.58,0,0,0,.19,0,.93.93,0,0,1,0,.24" transform="translate(-250 -436.13)"/><rect class="cls-1" x="237.59" y="520.96" width="1.08" height="1.08"/><rect class="cls-1" x="258.45" y="520.96" width="1.08" height="1.08"/><path class="cls-1" d="M509.11,957.53h-.25a10.31,10.31,0,1,0-20.61,0H488a10.56,10.56,0,0,1,21.11,0" transform="translate(-250 -436.13)"/><rect class="cls-1" x="248.02" y="510.43" width="1.08" height="1.08"/><rect class="cls-1" x="241.16" y="510.85" width="14.79" height="0.24"/><path class="cls-1" d="M491.55,947.15a.34.34,0,1,1-.34-.34.34.34,0,0,1,.34.34" transform="translate(-250 -436.13)"/><path class="cls-1" d="M506.29,947.15a.34.34,0,1,1-.34-.34.34.34,0,0,1,.34.34" transform="translate(-250 -436.13)"/><path class="cls-1" d="M612.62,966.85a2.07,2.07,0,0,1-4.13,0A2.07,2.07,0,0,1,612.62,966.85Z" transform="translate(-250 -436.13)"/><path class="cls-1" d="M345.54,954.85l3.11,10.65,3.24-10.65h3.88l-4.94,14.24h-4.08l-1.46-4.19L344,960.16l-1.26,4.74-1.47,4.19h-4.07l-5-14.24h3.9l3.25,10.65,3.07-10.65Z" transform="translate(-250 -436.13)"/><path class="cls-1" d="M371.75,954.85l3.1,10.65,3.25-10.65H382L377,969.09H373l-1.46-4.19-1.26-4.74L369,964.9l-1.46,4.19h-4.08l-5-14.24h3.91l3.24,10.65,3.08-10.65Z" transform="translate(-250 -436.13)"/><path class="cls-1" d="M398,954.85l3.1,10.65,3.25-10.65h3.88l-4.94,14.24h-4.08l-1.47-4.19-1.26-4.74-1.26,4.74-1.47,4.19h-4.08l-5-14.24h3.9l3.25,10.65,3.07-10.65Z" transform="translate(-250 -436.13)"/><path class="cls-1" d="M414.09,967.05a2.07,2.07,0,0,1-4.14,0A2.07,2.07,0,0,1,414.09,967.05Z" transform="translate(-250 -436.13)"/><path class="cls-1" d="M627.24,966.85a7.26,7.26,0,0,1-5.45,2.24c-4.11,0-7.53-2.46-7.53-7.49s3.42-7.5,7.53-7.5a6.73,6.73,0,0,1,5.11,2.1l-2.21,2.33a4.3,4.3,0,0,0-2.84-1.12,4,4,0,0,0-4.08,4.19,3.85,3.85,0,0,0,4,4.13,4.25,4.25,0,0,0,3.1-1.17Z" transform="translate(-250 -436.13)"/><path class="cls-1" d="M643.16,961.71a7.37,7.37,0,1,1-7.41-7.37A7.15,7.15,0,0,1,643.16,961.71Zm-11.23,0c0,2.16,1.29,4.17,3.85,4.17s3.85-2,3.85-4.17a4,4,0,0,0-3.85-4.19A3.89,3.89,0,0,0,631.93,961.71Z" transform="translate(-250 -436.13)"/><path class="cls-1" d="M655,969.09v-7.58c0-1.86-1-3.56-2.9-3.56s-3,1.7-3,3.56v7.58h-3.5V954.91h3.25l.25,1.72a4.13,4.13,0,0,1,3.74-2,4.24,4.24,0,0,1,4.19,2.64,5.12,5.12,0,0,1,4.74-2.58c4,0,6,2.47,6,6.72v7.63h-3.5v-7.63c0-1.87-.78-3.45-2.67-3.45a3.23,3.23,0,0,0-3.08,3.5v7.58Z" transform="translate(-250 -436.13)"/><text class="cls-4" transform="translate(82 498.22)"><tspan class="cls-5">D</tspan><tspan class="cls-6" x="10.06" y="0">o</tspan><tspan x="18.2" y="0">wnload </tspan><tspan class="cls-7" x="68.25" y="0">PNG PSD SVG EPS</tspan><tspan x="179.01" y="0" xml:space="preserve">  </tspan><tspan class="cls-8" x="185.38" y="0">F</tspan><tspan class="cls-9" x="192.23" y="0">o</tspan><tspan class="cls-10" x="200.47" y="0">r</tspan><tspan class="cls-11" x="205.44" y="0">m</tspan><tspan class="cls-12" x="217.96" y="0">a</tspan><tspan class="cls-9" x="225.14" y="0">ts </tspan><tspan class="cls-13" x="239.23" y="0">I</tspan><tspan x="242.97" y="0">n Single Zip</tspan></text><path class="cls-14" d="M634.58,563.87c-2-.46-4.09-.86-6.11-1.38a19.15,19.15,0,0,1-9.94-5.58c-2.8-3.14-3.5-6.87-2.9-11.07h16.94c1,4.24,2.32,5.47,6.7,5.79a39.34,39.34,0,0,0,7,0,12.45,12.45,0,0,0,9.48-5.92c2.94-4.63,3.33-10,4.55-15.16l-.38-.26a17.92,17.92,0,0,0-1.45,1.44c-7.81,9.87-23.21,8.73-29.84,3.64a18.16,18.16,0,0,1-7.19-13.57c-.95-12.72,2.25-24.33,10.4-34.28,5.68-6.93,13.12-10.85,22.14-11,6-.1,12.71,1.4,15.52,9.89a6.83,6.83,0,0,0,.62,1c.74-3.31,1.39-6.23,2.06-9.2h15c-.49,2.33-1,4.57-1.43,6.8Q680,511.36,674.38,537.8a34.28,34.28,0,0,1-6.45,14.65c-4.93,6.15-11.64,9-19.16,10.37-2.11.38-4.24.7-6.36,1Zm3.06-49.66c0,.57,0,1.14,0,1.7.35,5.25,3,9,7.21,9.75,4.83.89,9.39,0,13-3.5,6.54-6.34,8.67-14.37,7.59-23.17-.67-5.42-3.89-8.27-9-8.9a12.58,12.58,0,0,0-10.45,3.55C640,499.18,638.26,506.49,637.64,514.21Z" transform="translate(-250 -436.13)"/><path class="cls-14" d="M250,518.91a6.81,6.81,0,0,0,1.08-1.14q22.53-39.54,45-79.1a2.6,2.6,0,0,1,2.64-1.56c5.39.09,10.79,0,16.18,0,.55,0,1.11.05,1.73.08,3.82,27.31,7.62,54.51,11.45,81.85H309.76c-.56-5.57-1.12-11.18-1.7-16.9h-2c-8.91,0-17.82,0-26.73,0a2.81,2.81,0,0,0-2.88,1.74c-2.53,4.76-5.2,9.44-7.74,14.18a1.94,1.94,0,0,1-2,1.16c-5.56,0-11.12,0-16.68,0Zm56.3-30.73c-1.11-10.95-2.21-21.78-3.31-32.6l-.55-.06-17.53,32.66Z" transform="translate(-250 -436.13)"/><path class="cls-14" d="M432.92,436.13c-.94,4.66-1.86,9.33-2.85,14-.06.3-.59.55-1,.72a2.12,2.12,0,0,1-.84,0h-14c1-5,2-9.88,2.95-14.73Z" transform="translate(-250 -436.13)"/><path class="cls-14" d="M454.37,458.42c-.64,3.07-1.21,5.82-1.78,8.58l.39.23c.55-.63,1.12-1.26,1.66-1.91,5.92-7,13.46-9.45,22.4-8.08,4.36.66,7.27,3.19,9.2,7,.35.7.69,1.4,1.25,2.57.64-.79,1.09-1.42,1.61-2,6.33-6.77,13.94-9.54,23.08-7.2,8.52,2.17,12,9,10.74,16.47-1.35,8.32-3.31,16.55-5,24.81-1.41,6.71-2.86,13.41-4.3,20.18H497.89c.79-3.71,1.54-7.31,2.3-10.9,1.94-9.21,4-18.39,5.76-27.63a16.46,16.46,0,0,0-.2-6.21c-.55-2.65-2.77-4.13-5.5-4.23-7.08-.28-11.8,2.84-13.82,9.84-1.59,5.49-2.58,11.15-3.79,16.74-1.53,7.09-3,14.19-4.52,21.29a11.28,11.28,0,0,1-.36,1.13H462.19L464.1,510c2.16-10.31,4.39-20.61,6.46-30.94,1.14-5.73-1.57-8.72-7.36-8.94-6.79-.26-11.07,3.88-12.58,10-1.79,7.2-3.21,14.5-4.77,21.75-1.17,5.43-2.28,10.87-3.49,16.29a1.68,1.68,0,0,1-1.12,1.07c-4.88.07-9.75.05-14.79.05,1.08-5.12,2.11-10.1,3.17-15.07q4.71-22.11,9.47-44.21c.12-.56.75-1.42,1.16-1.43C444.9,458.38,449.54,458.42,454.37,458.42Z" transform="translate(-250 -436.13)"/><path class="cls-14" d="M537.92,456.8h60.22c-.37,1.86-.72,3.62-1.09,5.38-.5,2.39-1.12,4.75-1.51,7.15-.21,1.3-.75,1.62-2,1.62-10.56-.05-21.12,0-31.68,0-3,0-6,0-9,0-.91,0-1.49.16-1.7,1.18-1.08,5.28-2.21,10.54-3.32,15.81a3.23,3.23,0,0,0,0,.65h40l-3,14.31h-2.14c-12.09,0-24.18,0-36.27,0-1.48,0-1.91.51-2.18,1.84-1.23,6.11-2.57,12.2-3.86,18.29-.09.43-.13.88-.23,1.58h45.57l-3,14.1H520.52Z" transform="translate(-250 -436.13)"/><path class="cls-14" d="M712,540.4c-7.39-.08-13.51-1.42-18.66-5.69A19.52,19.52,0,0,1,686.15,520c-.54-14.22,3.82-26.68,15.35-35.57,10.51-8.11,22.5-10.29,35.17-5.74,8.39,3,12.74,9.63,13.24,18.32.7,11.94-2.77,22.71-11,31.59A36.43,36.43,0,0,1,712,540.4Zm1.29-13.26c5.79.1,10.07-1.5,13.28-5.25,5.57-6.49,7.53-14.21,6.93-22.61-.28-4-2.16-7.17-6.05-8.71-6-2.39-13.95-.28-18.18,4.63-3.49,4-5.26,8.82-6.21,13.95a33,33,0,0,0-.65,6.41C702.46,523.26,706.44,527.12,713.27,527.14Z" transform="translate(-250 -436.13)"/><path class="cls-14" d="M360.29,467c1.11-1.11,2.2-2.25,3.34-3.33,6.88-6.48,15-8.25,24-5.9,8.32,2.17,11.48,9,10.31,16.27-1.35,8.32-3.31,16.55-5,24.82-1.4,6.71-2.86,13.41-4.31,20.2H372.89c.77-3.68,1.51-7.28,2.27-10.87q2.93-13.82,5.86-27.61c.05-.23.09-.45.12-.67,1.29-8.91-4.29-10.86-11.6-9.5S358.49,477,357,483.88c-2.51,11.17-4.8,22.39-7.19,33.59-.12.54-.27,1.08-.42,1.66h-15.6c.51-2.55,1-5,1.52-7.48,3.63-17.08,7.29-34.14,10.87-51.23.33-1.58.9-2.11,2.54-2.05,3.68.14,7.38.05,11.07.05h1.83c-.59,3-1.15,5.74-1.7,8.49Z" transform="translate(-250 -436.13)"/><path class="cls-14" d="M415.43,519.12H399.72c4.31-20.26,8.59-40.4,12.88-60.61h15.71C424,478.79,419.72,498.92,415.43,519.12Z" transform="translate(-250 -436.13)"/><path class="cls-14" d="M604.58,478.13h15.7c-.84,4-1.66,7.93-2.49,11.84-3.32,15.62-6.68,31.23-9.94,46.87-.32,1.56-.94,2-2.46,1.93-4-.11-7.94,0-11.91,0H591.7Z" transform="translate(-250 -436.13)"/><path class="cls-14" d="M609.3,456H625c-1,4.85-2,9.6-3.07,14.42H606.24C607.27,465.54,608.28,460.76,609.3,456Z" transform="translate(-250 -436.13)"/></svg>